<svg xmlns="http://www.w3.org/2000/svg" viewBox="-12.0 -14.0 1136.0 168.0"><path d="M119.74,36.45 A60.00,60.00 0 1 0 119.74,103.55" fill="none" stroke="#16181A" stroke-width="24.0"/><rect x="107.74" y="58.00" width="24.0" height="45.55" fill="#16181A"/><rect x="66.00" y="58.00" width="65.74" height="24.0" fill="#16181A"/><rect x="162.00" y="0.00" width="24.00" height="140.00" fill="#16181A"/><rect x="162.00" y="0.00" width="140.00" height="24.00" fill="#16181A"/><rect x="162.00" y="58.00" width="114.80" height="24.00" fill="#16181A"/><rect x="162.00" y="116.00" width="140.00" height="24.00" fill="#16181A"/><circle cx="394.00" cy="70.00" r="60.00" fill="none" stroke="#16181A" stroke-width="24.0"/><clipPath id="n93"><rect x="483.00" y="0.00" width="146.00" height="140.00"/></clipPath><g clip-path="url(#n93)"><line x1="498.00" y1="-18.00" x2="614.00" y2="158.00" stroke="#16181A" stroke-width="24.0"/></g><rect x="486.00" y="0.00" width="24.00" height="140.00" fill="#16181A"/><rect x="602.00" y="0.00" width="24.00" height="140.00" fill="#16181A"/><rect x="648.00" y="0.00" width="24.00" height="140.00" fill="#16181A"/><rect x="648.00" y="0.00" width="140.00" height="24.00" fill="#16181A"/><rect x="648.00" y="58.00" width="114.80" height="24.00" fill="#16181A"/><rect x="648.00" y="116.00" width="140.00" height="24.00" fill="#16181A"/><clipPath id="x95"><rect x="807.00" y="0.00" width="146.00" height="140.00"/></clipPath><g clip-path="url(#x95)"><g stroke="#16181A" stroke-width="24.0"><line x1="822.00" y1="-18.00" x2="938.00" y2="158.00"/><line x1="938.00" y1="-18.00" x2="822.00" y2="158.00"/></g></g><clipPath id="a96"><rect x="969.00" y="0.00" width="146.00" height="140.00"/></clipPath><g clip-path="url(#a96)"><g stroke="#16181A" stroke-width="24.0" fill="none"><path d="M984.00,158.00 L1042.00,-18.00"/><path d="M1100.00,158.00 L1042.00,-18.00"/></g></g><rect x="998.60" y="84.00" width="86.80" height="24.00" fill="#16181A"/><rect x="0" y="0" width="140" height="140" fill="none" stroke="#C8281B" stroke-width="1.8"/><circle cx="70" cy="70" r="70" fill="none" stroke="#C8281B" stroke-width="1.2" opacity=".75"/><rect x="162" y="0" width="140" height="140" fill="none" stroke="#C8281B" stroke-width="1.8"/><circle cx="232" cy="70" r="70" fill="none" stroke="#C8281B" stroke-width="1.2" opacity=".75"/><rect x="324" y="0" width="140" height="140" fill="none" stroke="#C8281B" stroke-width="1.8"/><circle cx="394" cy="70" r="70" fill="none" stroke="#C8281B" stroke-width="1.2" opacity=".75"/><rect x="486" y="0" width="140" height="140" fill="none" stroke="#C8281B" stroke-width="1.8"/><circle cx="556" cy="70" r="70" fill="none" stroke="#C8281B" stroke-width="1.2" opacity=".75"/><rect x="648" y="0" width="140" height="140" fill="none" stroke="#C8281B" stroke-width="1.8"/><circle cx="718" cy="70" r="70" fill="none" stroke="#C8281B" stroke-width="1.2" opacity=".75"/><rect x="810" y="0" width="140" height="140" fill="none" stroke="#C8281B" stroke-width="1.8"/><circle cx="880" cy="70" r="70" fill="none" stroke="#C8281B" stroke-width="1.2" opacity=".75"/><rect x="972" y="0" width="140" height="140" fill="none" stroke="#C8281B" stroke-width="1.8"/><circle cx="1042" cy="70" r="70" fill="none" stroke="#C8281B" stroke-width="1.2" opacity=".75"/></svg>