<svg xmlns="http://www.w3.org/2000/svg" width="250" height="250" viewBox="0 0 250 250">
  <defs>
    <style>
      .cls-1, .cls-4 {
        fill: none;
      }

      .cls-1, .cls-2, .cls-3, .cls-4, .cls-5 {
        stroke: #000;
      }

      .cls-1, .cls-2, .cls-3 {
        stroke-width: 10px;
      }

      .cls-1, .cls-3, .cls-4, .cls-5 {
        fill-rule: evenodd;
      }

      .cls-4 {
        stroke-width: 15.6px;
      }

      .cls-5 {
        stroke-width: 1px;
      }
    </style>
  </defs>
  <path id="Прямоугольник_скругл._углы_1" data-name="Прямоугольник, скругл. углы 1" class="cls-1" d="M104.406,101h40a5,5,0,0,1,5,5v90a5,5,0,0,1-5,5h-40a5,5,0,0,1-5-5V106A5,5,0,0,1,104.406,101Z"/>
  <rect id="Прямоугольник_скругл._углы_2" data-name="Прямоугольник, скругл. углы 2" class="cls-2" x="90" y="68" width="70" height="24" rx="3" ry="3"/>
  <path id="Фигура_1" data-name="Фигура 1" class="cls-3" d="M110,8h30V68H110V8Z"/>
  <path id="Прямоугольник_скругл._углы_3" data-name="Прямоугольник, скругл. углы 3" class="cls-4" d="M45.993,38H201.007a10,10,0,0,1,10,10V225a10,10,0,0,1-10,10H45.993a10,10,0,0,1-10-10V48A10,10,0,0,1,45.993,38Z"/>
  <path id="Эллипс_1" data-name="Эллипс 1" class="cls-5" d="M126.5,127a4.5,4.5,0,1,1-4.5,4.5A4.5,4.5,0,0,1,126.5,127Zm-14,15a4.5,4.5,0,1,1-4.5,4.5A4.5,4.5,0,0,1,112.5,142Zm22,5a4.5,4.5,0,1,1-4.5,4.5A4.5,4.5,0,0,1,134.5,147Zm1-34a4.5,4.5,0,1,1-4.5,4.5A4.5,4.5,0,0,1,135.5,113Zm0,64a4.5,4.5,0,1,1-4.5,4.5A4.5,4.5,0,0,1,135.5,177Zm-23,5a4.5,4.5,0,1,1-4.5,4.5A4.5,4.5,0,0,1,112.5,182Zm8-20a4.5,4.5,0,1,1-4.5,4.5A4.5,4.5,0,0,1,120.5,162Zm-8-46a4.5,4.5,0,1,1-4.5,4.5A4.5,4.5,0,0,1,112.5,116Z"/>
</svg>
