<?xml version="1.0" encoding="utf-8"?>
<!-- Generator: Adobe Illustrator 21.1.0, SVG Export Plug-In . SVG Version: 6.00 Build 0)  -->
<svg version="1.2" baseProfile="tiny" id="Слой_1"
	 xmlns="http://www.w3.org/2000/svg" xmlns:xlink="http://www.w3.org/1999/xlink" x="0px" y="0px" viewBox="0 0 480 100"
	 xml:space="preserve">
<g>
	<polygon fill="#79BD48" points="99.1,39.1 0,39.1 0,75.6 28.7,46.9 99.1,46.9 	"/>
	<rect fill="#0260A0" width="99.1" height="7.8"/>
	<rect y="13" fill="#0260A0" width="99.1" height="7.8"/>
	<rect y="26.1" fill="#0260A0" width="99.1" height="7.8"/>
	<polygon fill="#0260A0" points="33.9,52.1 0,86 0,99 13,99 52.2,59.9 52.2,59.9 99.1,59.9 99.1,52.1 	"/>
	<polygon fill="#79BD48" points="57.4,65.1 23.5,99 99.1,99 99.1,65.1 	"/>
	<g>
		<g>
			<path fill="#0260A0" d="M242.6,58.7c-0.9,4.8-1.3,9.8-1.3,14.9s0.4,10,1.3,14.9c0.3,1.6,1.7,2.7,3.3,2.7h27.4v-6.7h-22.1v-7.6
				h20.1v-6.3h-20.1v-8h22.1V56h-27.4C244.3,56,242.9,57.1,242.6,58.7z"/>
			<polygon fill="#0260A0" points="130.4,91.2 139.8,91.2 139.8,62.3 154.1,62.3 154.1,91.2 163.5,91.2 163.5,56 130.4,56 			"/>
			<path fill="#0260A0" d="M311.1,56h-7.6c-1.5,0-2.7,0.8-3.4,2.1l-7.2,12.6h-6.5V56h-9.9v35.2h9.9V76.9h6.4l6.4,11.6
				c1,1.8,2.5,2.7,4.5,2.7h7.6l-10.5-17.5L311.1,56z"/>
			<path fill="#0260A0" d="M196.4,56h-28.5v35.2h9.3v-8.5h19.2c1.6,0,3-1.2,3.3-2.7c0.7-3.7,1-6.9,1-10.6s-0.3-6.9-1-10.6
				C199.4,57.1,198,56,196.4,56z M191.2,76h-14V62.7h14V76z"/>
			<path fill="#0260A0" d="M233.5,56h-25.2c-1.6,0-3,1.2-3.3,2.7c-0.9,4.8-1.3,9.8-1.3,14.9c0,5,0.4,10,1.3,14.9
				c0.3,1.6,1.7,2.7,3.3,2.7h25.2c1.6,0,3-1.1,3.3-2.7c0.9-4.8,1.3-9.8,1.3-14.9c0-5-0.4-10-1.3-14.9C236.5,57.1,235.2,56,233.5,56z
				 M228.3,84.5h-14.7V62.7h14.7V84.5z"/>
			<polygon fill="#0260A0" points="311.5,62.7 321.1,62.7 321.1,91.2 330.4,91.2 330.4,62.7 341.9,62.7 341.9,56 311.5,56 			"/>
		</g>
		<g>
			<path fill="#0260A0" d="M139.8,34.5H159c1.6,0,3-1.2,3.3-2.7c0.7-3.7,1-6.9,1-10.6s-0.3-6.9-1-10.6C162,9,160.6,7.8,159,7.8
				h-28.5V43h9.3V34.5z M139.8,14.5h14v13.3h-14V14.5z"/>
			<path fill="#0260A0" d="M196.1,7.8h-25.2c-1.6,0-3,1.1-3.3,2.7c-0.9,4.8-1.3,9.8-1.3,14.9s0.4,10,1.3,14.9
				c0.3,1.6,1.7,2.7,3.3,2.7h25.2c1.6,0,3-1.1,3.3-2.7c0.9-4.8,1.3-9.8,1.3-14.9c0-5-0.4-10-1.3-14.9C199.1,9,197.7,7.8,196.1,7.8z
				 M190.8,36.3h-14.7V14.5h14.7V36.3z"/>
			<path fill="#0260A0" d="M438.6,7.8h-25.2c-1.6,0-3,1.1-3.3,2.7c-0.9,4.8-1.3,9.8-1.3,14.9s0.4,10,1.3,14.9
				c0.3,1.6,1.7,2.7,3.3,2.7h25.2c1.6,0,3-1.1,3.3-2.7c0.9-4.8,1.3-9.8,1.3-14.9c0-5-0.4-10-1.3-14.9C441.6,8.9,440.2,7.8,438.6,7.8
				z M433.4,36.3h-14.7V14.4h14.7V36.3z"/>
			<path fill="#0260A0" d="M233.5,14.5V7.8h-24.9c-1.6,0-3,1.1-3.3,2.7c-0.9,4.8-1.3,9.8-1.3,14.9s0.4,10,1.3,14.9
				c0.3,1.6,1.7,2.7,3.3,2.7h24.9v-6.7h-19.6V14.5H233.5z"/>
			<path fill="#0260A0" d="M331.7,32.2c0,2.1-0.7,4.1-3.2,4.1h-1.3c0,0.9,0,6.7,0,6.7s1.6,0,3.6,0c5.8,0,9.7-3.8,9.7-10.6
				c0,0,0-13.5,0-17.9h12.7V43h9.3V7.8h-30.8L331.7,32.2L331.7,32.2z"/>
			<path fill="#0260A0" d="M402.8,7.8H372v20.9c0,4.7-2.1,8-5.2,8c-0.7,0-1.6,0-1.6,0v12.9h7.3c0.3-1.6,0.7-4.1,0.9-5.1
				c0-0.3,0.2-1.3,0.3-1.6h24.8c0,0,0.2,1.1,0.3,1.8c0.2,0.9,0.7,3.8,0.8,4.9h7.7V36.7h-4.4L402.8,7.8L402.8,7.8z M392.5,36.7h-13.7
				c0.5-0.7,1.9-3.2,1.9-9.5V14.4h11.7L392.5,36.7z"/>
			<path fill="#0260A0" d="M284.2,42.9h7.6l-10.5-17.5l10.4-17.7h-7.6c-1.5,0-2.7,0.8-3.4,2l-7.2,12.6h-4.8V7.8h-9.9v14.6H254
				l-7.2-12.6c-0.7-1.3-2-2-3.5-2h-7.7L246,25.5L235.5,43h7.6c2,0,3.5-0.9,4.5-2.7l6.4-11.6h4.7V43h9.9V28.7h4.7l6.4,11.6
				C280.7,42,282.2,42.9,284.2,42.9z"/>
			<path fill="#0260A0" d="M297.2,42.9h27.4v-6.7h-22.1v-7.6h20.1v-6.3h-20.1v-8h22.1V7.8h-27.4c-1.6,0-3,1.1-3.3,2.7
				c-0.9,4.8-1.3,9.8-1.3,14.9s0.4,10,1.3,14.9C294.2,41.8,295.5,42.9,297.2,42.9z"/>
			<path fill="#0260A0" d="M479,10.5c-0.3-1.6-1.7-2.7-3.3-2.7h-28.5V43h9.3v-8.5h19.2c1.6,0,3-1.2,3.3-2.7c0.7-3.7,1-6.9,1-10.6
				C480,17.4,479.7,14.2,479,10.5z M470.5,27.8h-14V14.4h14V27.8z"/>
		</g>
	</g>
</g>
</svg>
