<?xml version="1.0" encoding="UTF-8"?>
<svg width="267px" height="63px" viewBox="0 0 267 63" version="1.1" xmlns="http://www.w3.org/2000/svg" xmlns:xlink="http://www.w3.org/1999/xlink">
    <!-- Generator: Sketch 44.1 (41455) - http://www.bohemiancoding.com/sketch -->
    <title>Group Copy</title>
    <desc>Created with Sketch.</desc>
    <defs></defs>
    <g id="Page-1" stroke="none" stroke-width="1" fill="none" fill-rule="evenodd">
        <g id="Desktop-Copy" transform="translate(-4.000000, -398.000000)">
            <g id="Group-Copy" transform="translate(4.000000, 398.000000)">
                <path d="M83.84,29 C84.84,29 85.68,28.2 85.68,27.2 L85.68,17.72 L86.56,17.72 C89.08,17.72 90.56,19.36 92.04,21.72 L95.48,27.16 C96.12,28.2 97.48,29 98.48,29 L102.96,29 C104,29 104.28,28.2 103.64,27.16 L98.76,19.4 C97.64,17.68 95.64,15.24 93.72,14.84 C96.44,14.2 97.76,12.32 98.76,10.52 L103,2.84 C103.6,1.76 103.4,0.96 102.4,0.96 L97.88,0.96 C96.88,0.96 95.8,1.56 95.08,2.84 L92.04,8.24 C90.48,11.04 88.84,12.2 86.56,12.2 L85.68,12.2 L85.68,2.84 C85.68,1.8 84.84,0.96 83.84,0.96 L80.16,0.96 C79.16,0.96 78.32,1.8 78.32,2.84 L78.32,12.2 L77.44,12.2 C75.16,12.2 73.52,11.04 71.96,8.24 L68.92,2.84 C68.2,1.56 67.12,0.96 66.12,0.96 L61.6,0.96 C60.6,0.96 60.4,1.76 61,2.84 L65.24,10.52 C66.24,12.32 67.56,14.2 70.28,14.84 C68.36,15.24 66.36,17.68 65.24,19.4 L60.36,27.16 C59.72,28.2 60,29 61.04,29 L65.52,29 C66.52,29 67.88,28.2 68.52,27.16 L71.96,21.72 C73.44,19.36 74.92,17.72 77.44,17.72 L78.32,17.72 L78.32,27.2 C78.32,28.2 79.16,29 80.16,29 L83.84,29 Z M131.16,1 L108.64,1 C107.64,1 106.8,1.8 106.8,2.8 L106.8,27.12 C106.8,28.16 107.6,29 108.64,29 L131.08,29 C132.12,29 132.92,28.16 132.92,27.16 L132.92,25.28 C132.92,24.28 132.12,23.48 131.12,23.48 L114.16,23.48 L114.16,17.72 L128.8,17.72 C129.8,17.72 130.64,16.88 130.64,15.88 L130.64,14.04 C130.64,13.04 129.8,12.2 128.8,12.2 L114.16,12.2 L114.16,6.52 L131.16,6.52 C132.16,6.52 133,5.72 133,4.68 L133,2.84 C133,1.8 132.16,1 131.16,1 Z M163.6,27.16 L163.6,2.84 C163.6,1.88 162.88,1 161.96,1 L152.2,1 C146.52,1 140.88,2.4 139.24,8.6 L134.28,27.36 C134.04,28.24 134.68,29 135.56,29 L139.52,29 C140.56,29 141.56,28.2 141.84,27.16 L146.32,10.44 C146.96,8.04 148.96,6.52 151.48,6.52 L156.24,6.52 L156.24,27.16 C156.24,28.2 157.08,29 158.08,29 L161.8,29 C162.8,29 163.6,28.2 163.6,27.16 Z M169.76,23.48 L173.4,8.68 C174.92,2.44 180.4,1 186.08,1 L196.64,1 C197.64,1 198.48,1.8 198.48,2.8 L198.48,27.2 C198.48,28.2 197.64,29 196.64,29 L168.24,29 C167.24,29 166.4,28.16 166.4,27.16 L166.4,25.28 C166.4,24.28 167.24,23.48 168.24,23.48 L169.76,23.48 Z M180.56,10.36 L177.28,23.48 L191.12,23.48 L191.12,6.52 L185.28,6.52 C182.8,6.52 181.12,8 180.56,10.36 Z M218.2,5.68 C212.2,5.68 209.84,9 209.84,15 C209.84,21 212.2,24.32 218.2,24.32 C224.2,24.32 226.56,21 226.56,15 C226.56,9 224.2,5.68 218.2,5.68 Z M202.48,15 C202.48,4.6 208.2,0.4 218.2,0.4 C228.2,0.4 233.92,4.6 233.92,15 C233.92,25.4 228.2,29.6 218.2,29.6 C208.2,29.6 202.48,25.4 202.48,15 Z M252.4,6.52 L245.28,6.52 L245.28,17.24 L252.4,17.24 C256.24,17.24 259.08,16.44 259.08,11.88 C259.08,7.32 256.24,6.52 252.4,6.52 Z M239.72,1 L254.64,1 C262.08,1 266.44,4.36 266.44,11.88 C266.44,19.4 262.08,22.76 254.64,22.76 L245.28,22.76 L245.28,27.16 C245.28,28.16 244.48,29 243.44,29 L239.76,29 C238.76,29 237.92,28.16 237.92,27.16 L237.92,2.84 C237.92,1.8 238.72,1 239.72,1 Z" id="ЖЕЛДОР" fill="#465562"></path>
                <path d="M86.92,62 C87.96,62 88.8,61.16 88.8,60.16 L88.8,35.84 C88.8,34.8 87.96,34 86.96,34 L61.6,34 C60.6,34 59.8,34.8 59.8,35.84 L59.8,60.16 C59.8,61.16 60.6,62 61.64,62 L65.32,62 C66.32,62 67.16,61.16 67.16,60.16 L67.16,39.52 L81.44,39.52 L81.44,60.16 C81.44,61.16 82.28,62 83.28,62 L86.92,62 Z M108.88,39.52 L101.76,39.52 L101.76,50.24 L108.88,50.24 C112.72,50.24 115.56,49.44 115.56,44.88 C115.56,40.32 112.72,39.52 108.88,39.52 Z M96.2,34 L111.12,34 C118.56,34 122.92,37.36 122.92,44.88 C122.92,52.4 118.56,55.76 111.12,55.76 L101.76,55.76 L101.76,60.16 C101.76,61.16 100.96,62 99.92,62 L96.24,62 C95.24,62 94.4,61.16 94.4,60.16 L94.4,35.84 C94.4,34.8 95.2,34 96.2,34 Z M140.64,38.68 C134.64,38.68 132.28,42 132.28,48 C132.28,54 134.64,57.32 140.64,57.32 C146.64,57.32 149,54 149,48 C149,42 146.64,38.68 140.64,38.68 Z M124.92,48 C124.92,37.6 130.64,33.4 140.64,33.4 C150.64,33.4 156.36,37.6 156.36,48 C156.36,58.4 150.64,62.6 140.64,62.6 C130.64,62.6 124.92,58.4 124.92,48 Z M184.72,34 L162.2,34 C161.2,34 160.36,34.8 160.36,35.8 L160.36,60.12 C160.36,61.16 161.16,62 162.2,62 L184.64,62 C185.68,62 186.48,61.16 186.48,60.16 L186.48,58.28 C186.48,57.28 185.68,56.48 184.68,56.48 L167.72,56.48 L167.72,50.72 L182.36,50.72 C183.36,50.72 184.2,49.88 184.2,48.88 L184.2,47.04 C184.2,46.04 183.36,45.2 182.36,45.2 L167.72,45.2 L167.72,39.52 L184.72,39.52 C185.72,39.52 186.56,38.72 186.56,37.68 L186.56,35.84 C186.56,34.8 185.72,34 184.72,34 Z M195.68,62 C196.68,62 197.52,61.2 197.52,60.2 L197.52,50.72 L201.72,50.72 C204.24,50.72 205.72,52.36 207.2,54.72 L210.64,60.16 C211.28,61.2 212.64,62 213.64,62 L218.12,62 C219.16,62 219.44,61.2 218.8,60.16 L213.92,52.4 C212.8,50.68 210.8,48.24 208.88,47.84 C211.6,47.2 212.92,45.32 213.92,43.52 L218.16,35.84 C218.76,34.76 218.56,33.96 217.56,33.96 L213.04,33.96 C212.04,33.96 210.96,34.56 210.24,35.84 L207.2,41.24 C205.64,44.04 204,45.2 201.72,45.2 L197.52,45.2 L197.52,35.84 C197.52,34.8 196.68,33.96 195.68,33.96 L192,33.96 C191,33.96 190.16,34.8 190.16,35.84 L190.16,60.12 C190.16,61.16 191,62 192,62 L195.68,62 Z M221.4,34 C220.36,34 219.56,34.8 219.56,35.84 L219.56,37.68 C219.56,38.72 220.36,39.52 221.4,39.52 L230.12,39.52 L230.12,60.2 C230.12,61.2 230.96,62 231.96,62 L235.64,62 C236.64,62 237.48,61.2 237.48,60.2 L237.48,39.52 L246.2,39.52 C247.24,39.52 248.04,38.72 248.04,37.68 L248.04,35.84 C248.04,34.8 247.24,34 246.2,34 L221.4,34 Z" id="ПРОЕКТ" fill="#465562"></path>
                <path d="M6.56155281,46 L48,46 L48,46 C49.1045695,46 50,46.8954305 50,48 L50,60 L50,60 C50,61.1045695 49.1045695,62 48,62 L3.56155281,62 L3.56155281,62 C2.45698331,62 1.56155281,61.1045695 1.56155281,60 C1.56155281,59.8364764 1.58160751,59.67357 1.62126781,59.5149287 L4.62126781,47.5149287 L4.62126781,47.5149287 C4.84385131,46.6245947 5.64381753,46 6.56155281,46 Z" id="Rectangle-5" fill="#71B82D"></path>
                <path d="M18.5615528,1 L48,1 L48,1 C49.1045695,1 50,1.8954305 50,3 L50,15 L50,15 C50,16.1045695 49.1045695,17 48,17 L15.5615528,17 L15.5615528,17 C14.4569833,17 13.5615528,16.1045695 13.5615528,15 C13.5615528,14.8364764 13.5816075,14.67357 13.6212678,14.5149287 L16.6212678,2.51492875 L16.6212678,2.51492875 C16.8438513,1.62459475 17.6438175,1 18.5615528,1 Z" id="Rectangle-5-Copy" fill="#71B82D"></path>
                <path d="M38.4347826,26 L32.4347826,26 L30.3478261,34 L36.3478261,34 L38.4347826,26 Z M46.4347826,26 L44.3478261,34 L48,34 C49.1045695,34 50,34.8954305 50,36 L50,38 C50,39.1045695 49.1045695,40 48,40 L42.7826087,40 L42.3900407,41.5048438 C42.1603031,42.385505 41.36494,43 40.4548062,43 L36.5886721,43 L36.5886721,43 C35.4841026,43 34.5886721,42.1045695 34.5886721,41 C34.5886721,40.8296472 34.6104367,40.6599925 34.6534375,40.4951562 L34.7826087,40 L28.7826087,40 L28.3900407,41.5048438 C28.1603031,42.385505 27.36494,43 26.4548062,43 L22.5886721,43 L22.5886721,43 C21.4841026,43 20.5886721,42.1045695 20.5886721,41 C20.5886721,40.8296472 20.6104367,40.6599925 20.6534375,40.4951562 L20.7826087,40 L14.7826087,40 L14.3900407,41.5048438 C14.1603031,42.385505 13.36494,43 12.4548062,43 L8.58867206,43 L8.58867206,43 C7.48410256,43 6.58867206,42.1045695 6.58867206,41 C6.58867206,40.8296472 6.61043674,40.6599925 6.65343751,40.4951562 L6.7826087,40 L2.77485177,40 C1.67028227,40 0.774851773,39.1045695 0.774851773,38 C0.774851773,37.7850358 0.809507531,37.5714774 0.877485177,37.3675445 L1.54415184,35.3675445 L1.54415184,35.3675445 C1.81637994,34.5508602 2.58065762,34 3.44151844,34 L3.44151844,34 L8.34782609,34 L10.4347826,26 L6.77485177,26 L6.77485177,26 C5.67028227,26 4.77485177,25.1045695 4.77485177,24 C4.77485177,23.7850358 4.80950753,23.5714774 4.87748518,23.3675445 L5.54415184,21.3675445 L5.54415184,21.3675445 C5.81637994,20.5508602 6.58065762,20 7.44151844,20 L7.44151844,20 L48,20 C49.1045695,20 50,20.8954305 50,22 L50,24 L50,24 C50,25.1045695 49.1045695,26 48,26 L46.4347826,26 Z M24.4347826,26 L18.4347826,26 L16.3478261,34 L22.3478261,34 L24.4347826,26 Z" id="Combined-Shape" fill="#465562"></path>
            </g>
        </g>
    </g>
</svg>