<svg width="267" height="63" xmlns="http://www.w3.org/2000/svg"><g fill="none" fill-rule="evenodd"><path d="M83.84 29c1 0 1.84-.8 1.84-1.8v-9.48h.88c2.52 0 4 1.64 5.48 4l3.44 5.44c.64 1.04 2 1.84 3 1.84h4.48c1.04 0 1.32-.8.68-1.84l-4.88-7.76c-1.12-1.72-3.12-4.16-5.04-4.56 2.72-.64 4.04-2.52 5.04-4.32L103 2.84c.6-1.08.4-1.88-.6-1.88h-4.52c-1 0-2.08.6-2.8 1.88l-3.04 5.4c-1.56 2.8-3.2 3.96-5.48 3.96h-.88V2.84c0-1.04-.84-1.88-1.84-1.88h-3.68c-1 0-1.84.84-1.84 1.88v9.36h-.88c-2.28 0-3.92-1.16-5.48-3.96l-3.04-5.4c-.72-1.28-1.8-1.88-2.8-1.88H61.6c-1 0-1.2.8-.6 1.88l4.24 7.68c1 1.8 2.32 3.68 5.04 4.32-1.92.4-3.92 2.84-5.04 4.56l-4.88 7.76C59.72 28.2 60 29 61.04 29h4.48c1 0 2.36-.8 3-1.84l3.44-5.44c1.48-2.36 2.96-4 5.48-4h.88v9.48c0 1 .84 1.8 1.84 1.8h3.68Zm47.32-28h-22.52c-1 0-1.84.8-1.84 1.8v24.32c0 1.04.8 1.88 1.84 1.88h22.44c1.04 0 1.84-.84 1.84-1.84v-1.88c0-1-.8-1.8-1.8-1.8h-16.96v-5.76h14.64c1 0 1.84-.84 1.84-1.84v-1.84c0-1-.84-1.84-1.84-1.84h-14.64V6.52h17c1 0 1.84-.8 1.84-1.84V2.84c0-1.04-.84-1.84-1.84-1.84Zm32.44 26.16V2.84c0-.96-.72-1.84-1.64-1.84h-9.76c-5.68 0-11.32 1.4-12.96 7.6l-4.96 18.76c-.24.88.4 1.64 1.28 1.64h3.96c1.04 0 2.04-.8 2.32-1.84l4.48-16.72c.64-2.4 2.64-3.92 5.16-3.92h4.76v20.64c0 1.04.84 1.84 1.84 1.84h3.72c1 0 1.8-.8 1.8-1.84Zm6.16-3.68 3.64-14.8c1.52-6.24 7-7.68 12.68-7.68h10.56c1 0 1.84.8 1.84 1.8v24.4c0 1-.84 1.8-1.84 1.8h-28.4c-1 0-1.84-.84-1.84-1.84v-1.88c0-1 .84-1.8 1.84-1.8h1.52Zm10.8-13.12-3.28 13.12h13.84V6.52h-5.84c-2.48 0-4.16 1.48-4.72 3.84Zm37.64-4.68c-6 0-8.36 3.32-8.36 9.32s2.36 9.32 8.36 9.32 8.36-3.32 8.36-9.32-2.36-9.32-8.36-9.32ZM202.48 15C202.48 4.6 208.2.4 218.2.4s15.72 4.2 15.72 14.6c0 10.4-5.72 14.6-15.72 14.6s-15.72-4.2-15.72-14.6Zm49.92-8.48h-7.12v10.72h7.12c3.84 0 6.68-.8 6.68-5.36 0-4.56-2.84-5.36-6.68-5.36ZM239.72 1h14.92c7.44 0 11.8 3.36 11.8 10.88 0 7.52-4.36 10.88-11.8 10.88h-9.36v4.4c0 1-.8 1.84-1.84 1.84h-3.68c-1 0-1.84-.84-1.84-1.84V2.84c0-1.04.8-1.84 1.8-1.84ZM86.92 62c1.04 0 1.88-.84 1.88-1.84V35.84c0-1.04-.84-1.84-1.84-1.84H61.6c-1 0-1.8.8-1.8 1.84v24.32c0 1 .8 1.84 1.84 1.84h3.68c1 0 1.84-.84 1.84-1.84V39.52h14.28v20.64c0 1 .84 1.84 1.84 1.84h3.64Zm21.96-22.48h-7.12v10.72h7.12c3.84 0 6.68-.8 6.68-5.36 0-4.56-2.84-5.36-6.68-5.36ZM96.2 34h14.92c7.44 0 11.8 3.36 11.8 10.88 0 7.52-4.36 10.88-11.8 10.88h-9.36v4.4c0 1-.8 1.84-1.84 1.84h-3.68c-1 0-1.84-.84-1.84-1.84V35.84c0-1.04.8-1.84 1.8-1.84Zm44.44 4.68c-6 0-8.36 3.32-8.36 9.32s2.36 9.32 8.36 9.32S149 54 149 48s-2.36-9.32-8.36-9.32ZM124.92 48c0-10.4 5.72-14.6 15.72-14.6s15.72 4.2 15.72 14.6c0 10.4-5.72 14.6-15.72 14.6s-15.72-4.2-15.72-14.6Zm59.8-14H162.2c-1 0-1.84.8-1.84 1.8v24.32c0 1.04.8 1.88 1.84 1.88h22.44c1.04 0 1.84-.84 1.84-1.84v-1.88c0-1-.8-1.8-1.8-1.8h-16.96v-5.76h14.64c1 0 1.84-.84 1.84-1.84v-1.84c0-1-.84-1.84-1.84-1.84h-14.64v-5.68h17c1 0 1.84-.8 1.84-1.84v-1.84c0-1.04-.84-1.84-1.84-1.84Zm10.96 28c1 0 1.84-.8 1.84-1.8v-9.48h4.2c2.52 0 4 1.64 5.48 4l3.44 5.44c.64 1.04 2 1.84 3 1.84h4.48c1.04 0 1.32-.8.68-1.84l-4.88-7.76c-1.12-1.72-3.12-4.16-5.04-4.56 2.72-.64 4.04-2.52 5.04-4.32l4.24-7.68c.6-1.08.4-1.88-.6-1.88h-4.52c-1 0-2.08.6-2.8 1.88l-3.04 5.4c-1.56 2.8-3.2 3.96-5.48 3.96h-4.2v-9.36c0-1.04-.84-1.88-1.84-1.88H192c-1 0-1.84.84-1.84 1.88v24.28c0 1.04.84 1.88 1.84 1.88h3.68Zm25.72-28c-1.04 0-1.84.8-1.84 1.84v1.84c0 1.04.8 1.84 1.84 1.84h8.72V60.2c0 1 .84 1.8 1.84 1.8h3.68c1 0 1.84-.8 1.84-1.8V39.52h8.72c1.04 0 1.84-.8 1.84-1.84v-1.84c0-1.04-.8-1.84-1.84-1.84h-24.8Z" fill="#465562"/><path d="M6.562 46H48a2 2 0 0 1 2 2v12a2 2 0 0 1-2 2H3.562a2 2 0 0 1-1.94-2.485l3-12A2 2 0 0 1 6.561 46Zm12-45H48a2 2 0 0 1 2 2v12a2 2 0 0 1-2 2H15.562a2 2 0 0 1-1.94-2.485l3-12A2 2 0 0 1 18.561 1Z" fill="#71B82D"/><path d="M38.435 26h-6l-2.087 8h6l2.087-8Zm8 0-2.087 8H48a2 2 0 0 1 2 2v2a2 2 0 0 1-2 2h-5.217l-.393 1.505A2 2 0 0 1 40.455 43h-3.866a2 2 0 0 1-1.936-2.505l.13-.495h-6l-.393 1.505A2 2 0 0 1 26.455 43h-3.866a2 2 0 0 1-1.936-2.505l.13-.495h-6l-.393 1.505A2 2 0 0 1 12.455 43H8.589a2 2 0 0 1-1.936-2.505l.13-.495H2.775a2 2 0 0 1-1.898-2.632l.667-2A2 2 0 0 1 3.442 34h4.906l2.087-8h-3.66a2 2 0 0 1-1.898-2.632l.667-2A2 2 0 0 1 7.442 20H48a2 2 0 0 1 2 2v2a2 2 0 0 1-2 2h-1.565Zm-22 0h-6l-2.087 8h6l2.087-8Z" fill="#465562"/></g></svg>