<svg version="1.2" baseProfile="tiny" xmlns="http://www.w3.org/2000/svg" viewBox="0 0 480 100" xml:space="preserve"><path fill="#79BD48" d="M99.1 39.1H0v36.5l28.7-28.7h70.4z"/><path fill="#0260A0" d="M0 0h99.1v7.8H0zm0 13h99.1v7.8H0zm0 13.1h99.1v7.8H0zm33.9 26L0 86v13h13l39.2-39.1h46.9v-7.8z"/><path fill="#79BD48" d="M57.4 65.1 23.5 99h75.6V65.1z"/><path d="M242.6 58.7c-.9 4.8-1.3 9.8-1.3 14.9s.4 10 1.3 14.9c.3 1.6 1.7 2.7 3.3 2.7h27.4v-6.7h-22.1v-7.6h20.1v-6.3h-20.1v-8h22.1V56h-27.4c-1.6 0-3 1.1-3.3 2.7zM130.4 91.2h9.4V62.3h14.3v28.9h9.4V56h-33.1zM311.1 56h-7.6c-1.5 0-2.7.8-3.4 2.1l-7.2 12.6h-6.5V56h-9.9v35.2h9.9V76.9h6.4l6.4 11.6c1 1.8 2.5 2.7 4.5 2.7h7.6l-10.5-17.5L311.1 56zm-114.7 0h-28.5v35.2h9.3v-8.5h19.2c1.6 0 3-1.2 3.3-2.7.7-3.7 1-6.9 1-10.6s-.3-6.9-1-10.6c-.3-1.7-1.7-2.8-3.3-2.8zm-5.2 20h-14V62.7h14V76zm42.3-20h-25.2c-1.6 0-3 1.2-3.3 2.7-.9 4.8-1.3 9.8-1.3 14.9 0 5 .4 10 1.3 14.9.3 1.6 1.7 2.7 3.3 2.7h25.2c1.6 0 3-1.1 3.3-2.7.9-4.8 1.3-9.8 1.3-14.9 0-5-.4-10-1.3-14.9-.3-1.6-1.6-2.7-3.3-2.7zm-5.2 28.5h-14.7V62.7h14.7v21.8zm83.2-21.8h9.6v28.5h9.3V62.7h11.5V56h-30.4zM139.8 34.5H159c1.6 0 3-1.2 3.3-2.7.7-3.7 1-6.9 1-10.6s-.3-6.9-1-10.6c-.3-1.6-1.7-2.8-3.3-2.8h-28.5V43h9.3v-8.5zm0-20h14v13.3h-14V14.5zm56.3-6.7h-25.2c-1.6 0-3 1.1-3.3 2.7-.9 4.8-1.3 9.8-1.3 14.9s.4 10 1.3 14.9c.3 1.6 1.7 2.7 3.3 2.7h25.2c1.6 0 3-1.1 3.3-2.7.9-4.8 1.3-9.8 1.3-14.9 0-5-.4-10-1.3-14.9-.3-1.5-1.7-2.7-3.3-2.7zm-5.3 28.5h-14.7V14.5h14.7v21.8zM438.6 7.8h-25.2c-1.6 0-3 1.1-3.3 2.7-.9 4.8-1.3 9.8-1.3 14.9s.4 10 1.3 14.9c.3 1.6 1.7 2.7 3.3 2.7h25.2c1.6 0 3-1.1 3.3-2.7.9-4.8 1.3-9.8 1.3-14.9 0-5-.4-10-1.3-14.9-.3-1.6-1.7-2.7-3.3-2.7zm-5.2 28.5h-14.7V14.4h14.7v21.9zM233.5 14.5V7.8h-24.9c-1.6 0-3 1.1-3.3 2.7-.9 4.8-1.3 9.8-1.3 14.9s.4 10 1.3 14.9c.3 1.6 1.7 2.7 3.3 2.7h24.9v-6.7h-19.6V14.5h19.6zm98.2 17.7c0 2.1-.7 4.1-3.2 4.1h-1.3V43h3.6c5.8 0 9.7-3.8 9.7-10.6V14.5h12.7V43h9.3V7.8h-30.8v24.4zm71.1-24.4H372v20.9c0 4.7-2.1 8-5.2 8h-1.6v12.9h7.3c.3-1.6.7-4.1.9-5.1 0-.3.2-1.3.3-1.6h24.8s.2 1.1.3 1.8c.2.9.7 3.8.8 4.9h7.7V36.7h-4.4l-.1-28.9zm-10.3 28.9h-13.7c.5-.7 1.9-3.2 1.9-9.5V14.4h11.7l.1 22.3zm-108.3 6.2h7.6l-10.5-17.5 10.4-17.7h-7.6c-1.5 0-2.7.8-3.4 2l-7.2 12.6h-4.8V7.8h-9.9v14.6H254l-7.2-12.6c-.7-1.3-2-2-3.5-2h-7.7L246 25.5 235.5 43h7.6c2 0 3.5-.9 4.5-2.7l6.4-11.6h4.7V43h9.9V28.7h4.7l6.4 11.6c1 1.7 2.5 2.6 4.5 2.6zm13 0h27.4v-6.7h-22.1v-7.6h20.1v-6.3h-20.1v-8h22.1V7.8h-27.4c-1.6 0-3 1.1-3.3 2.7-.9 4.8-1.3 9.8-1.3 14.9s.4 10 1.3 14.9c.3 1.5 1.6 2.6 3.3 2.6zM479 10.5c-.3-1.6-1.7-2.7-3.3-2.7h-28.5V43h9.3v-8.5h19.2c1.6 0 3-1.2 3.3-2.7.7-3.7 1-6.9 1-10.6 0-3.8-.3-7-1-10.7zm-8.5 17.3h-14V14.4h14v13.4z" fill="#0260A0"/></svg>