<svg width="24" height="24" viewBox="0 0 24 24" fill="none" xmlns="http://www.w3.org/2000/svg">
<path d="M14.3361 1.02597C14.2649 0.997688 14.1866 0.992353 14.1122 1.01071C14.0378 1.02907 13.971 1.07021 13.9211 1.12838L1.08778 16.1617C1.04201 16.2154 1.01267 16.2811 1.00327 16.351C0.993875 16.4209 1.00481 16.4921 1.03478 16.5559L3.96811 22.7892C3.99776 22.8522 4.04471 22.9055 4.10349 22.9427C4.16227 22.98 4.23044 22.9998 4.30004 22.9998H17.1333C17.2262 22.9998 17.3157 22.9646 17.3836 22.9013L22.8836 17.768C22.9203 17.7336 22.9496 17.6921 22.9696 17.646C22.9896 17.5998 23 17.5501 23 17.4998C23 10.7995 18.1191 2.53918 14.3361 1.02597ZM22.248 16.8023L16.323 12.8522L14.2043 8.2619L14.5375 1.9338C17.9086 3.75873 21.9504 10.7817 22.248 16.8023ZM13.4744 8.17358L9.58548 12.0625L2.7679 15.3231L13.7769 2.42686L13.4744 8.17358ZM10.0976 12.5874L13.7207 8.96425L15.676 13.2001L16.7221 22.2664H4.91264L10.0976 12.5874ZM16.4882 13.8437L22.0443 17.5478L17.4142 21.8693L16.4882 13.8437ZM1.8537 16.5734L8.94767 13.1807L4.32117 21.8168L1.8537 16.5734Z" fill="black" stroke="black" stroke-width="0.4"/>
</svg>
