<svg width="24" height="24" viewBox="0 0 24 24" fill="none" xmlns="http://www.w3.org/2000/svg">
<path d="M12 2V8.5L15 10.22M10 4L12 5L14 4H10Z" stroke="black" stroke-width="2" stroke-linecap="round" stroke-linejoin="round"/>
<path d="M20.6602 7L15.031 10.25L15.0414 13.7081M17.9281 6.26794L18.0621 8.5L19.9281 9.73205L17.9281 6.26794Z" stroke="black" stroke-width="2" stroke-linecap="round" stroke-linejoin="round"/>
<path d="M20.6602 17L15.031 13.75L12.0414 15.4881M19.9281 14.2679L18.0621 15.5L17.9281 17.732L19.9281 14.2679Z" stroke="black" stroke-width="2" stroke-linecap="round" stroke-linejoin="round"/>
<path d="M12 22V15.5L9 13.78M14 20L12 19L10 20H14Z" stroke="black" stroke-width="2" stroke-linecap="round" stroke-linejoin="round"/>
<path d="M3.33984 17L8.96901 13.75L8.95857 10.2919M6.07189 17.7321L5.93792 15.5L4.07189 14.268L6.07189 17.7321Z" stroke="black" stroke-width="2" stroke-linecap="round" stroke-linejoin="round"/>
<path d="M3.33984 7L8.96901 10.25L11.9586 8.51193M4.07189 9.73206L5.93792 8.5L6.07189 6.26795L4.07189 9.73206Z" stroke="black" stroke-width="2" stroke-linecap="round" stroke-linejoin="round"/>
</svg>
